# xmcd
# 
# Track frame offsets:
#     150
#     21140
#     33215
#     43639
#     55961
#     69143
#     83787
#     97157
#     108365
#     118431
#     132054
#     146254
#     159669
#     173044
#     185994
#     199514
#     212099
#     223874
#     237882
#     255041
#     265904
#     271869
#     284627
#     298074
#     310194
# 
# Disc length: 4313
# 
# Revision: 4
# Processed by: cddbd v1.5.2PL0 Copyright (c) Steve Scherf et al.
# Submitted via: fre:ac v1.0.31
# 
DISCID=7410d719
DTITLE=Motown - Complete Motown Singles - Volume 09 - Disc 46
DYEAR=1969
DGENRE=R&B
TTITLE0=The Temptations - Don't Let The Joneses Get You Down (mono)
TTITLE1=The Temptations - Since I've Lost You (mono)
TTITLE2=The Isley Brothers - Just Ain't Enough Love (mono)
TTITLE3=The Originals - Green Grow The Lilacs (mono)
TTITLE4=Diana Ross and The Supremes - No Matter What Sign You Are (mono)
TTITLE5=Diana Ross and The Supremes - The Young Folks (mono)
TTITLE6=Diana Ross and The Supremes - No Matter What Sign You Are (alt. mix) (mono)
TTITLE7=Edwin Starr - I'm Still A Struggling Man (mono)
TTITLE8=Edwin Starr - Pretty Little Angel (mono)
TTITLE9=Gladys Knight and The Pips - The Nitty Gritty (mono)
TTITLE10=Gladys Knight and The Pips - Got Myself A Good Man (mono)
TTITLE11=Smokey Robinson and The Miracles - Doggone Right (mono)
TTITLE12=Smokey Robinson and The Miracles - Here I Go Again (mono)
TTITLE13=Smokey Robinson and The Miracles - Abraham, Martin, And John (mono)
TTITLE14=Smokey Robinson and The Miracles - Abraham, Martin, And John (alt. mix) (mono)
TTITLE15=David Ruffin - I've Lost Everything I've Ever Loved (mono)
TTITLE16=David Ruffin - We'll Have A Good Thing Going On (mono)
TTITLE17=Diana Ross and The Supremes with The Temptations - Stubborn Kind Of Fellow (mono)
TTITLE18=Diana Ross and The Supremes with The Temptations - Try It Baby (mono)
TTITLE19=Captain Zap and The Motortown Cut-Ups - The Luney Landing (mono)
TTITLE20=Captain Zap and The Motortown Cut-Ups - The Luney Take-Off (mono)
TTITLE21=Bobby Taylor - Oh, I've Been Blessed (mono)
TTITLE22=Bobby Taylor - It Should Have Been Me Loving Her (mono)
TTITLE23=The Lollipops - Cheating Is Telling On You (mono)
TTITLE24=The Lollipops - Need Your Love (mono)
EXTD=
EXTT0=
EXTT1=
EXTT2=
EXTT3=
EXTT4=
EXTT5=
EXTT6=
EXTT7=
EXTT8=
EXTT9=
EXTT10=
EXTT11=
EXTT12=
EXTT13=
EXTT14=
EXTT15=
EXTT16=
EXTT17=
EXTT18=
EXTT19=
EXTT20=
EXTT21=
EXTT22=
EXTT23=
EXTT24=
PLAYORDER=
